<svg width="17" height="12" viewBox="0 0 17 12" fill="none" xmlns="http://www.w3.org/2000/svg">
<path d="M0.825947 6.79009H14.1815L10.1509 10.6466C9.82877 10.9549 9.82877 11.4606 10.1509 11.7688C10.473 12.0771 10.9934 12.0771 11.3155 11.7688L16.7585 6.56091C16.835 6.4878 16.8958 6.40095 16.9372 6.30535C16.9787 6.20975 17 6.10726 17 6.00376C17 5.90026 16.9787 5.79778 16.9372 5.70217C16.8958 5.60657 16.835 5.51973 16.7585 5.44662L11.3237 0.230777C11.2473 0.157612 11.1565 0.0995738 11.0566 0.0599769C10.9567 0.02038 10.8496 1.54185e-09 10.7414 0C10.6333 -1.54185e-09 10.5262 0.02038 10.4263 0.0599769C10.3264 0.0995738 10.2356 0.157612 10.1591 0.230777C10.0827 0.303943 10.022 0.390803 9.98063 0.486398C9.93925 0.581994 9.91795 0.684452 9.91795 0.787924C9.91795 0.891396 9.93925 0.993854 9.98063 1.08945C10.022 1.18504 10.0827 1.2719 10.1591 1.34507L14.1815 5.20953H0.825947C0.371676 5.20953 0 5.56516 0 5.99981C0 6.43446 0.371676 6.79009 0.825947 6.79009Z" fill="white"/>
</svg>
