<svg width="112" height="86" viewBox="0 0 112 86" fill="none" xmlns="http://www.w3.org/2000/svg">
<path d="M15.2259 41.657C41.7982 23.3127 80.637 27.3187 105.36 47.131C105.435 47.2515 105.471 47.3926 105.461 47.5343C105.452 47.6761 105.399 47.8114 105.309 47.9211C105.218 48.0309 105.096 48.1095 104.959 48.146C104.821 48.1825 104.676 48.175 104.543 48.1246C86.3681 32.7114 60.5454 29.3499 37.8993 34.8964C30.312 36.7723 22.9336 39.4099 15.8765 42.7691C15.7405 42.8338 15.586 42.8484 15.4403 42.8102C15.2946 42.772 15.1671 42.6834 15.0805 42.5602C14.9877 42.4186 14.9512 42.2475 14.9781 42.0804C15.005 41.9133 15.0934 41.7623 15.2259 41.657Z" fill="#177AC5"/>
<path d="M4.65345 45.7763C5.63759 44.9265 6.5908 44.0354 7.49201 43.0986C10.2187 40.2576 12.4142 36.9511 13.9747 33.3357C13.9872 33.2289 14.0249 33.1265 14.0847 33.0372C14.1445 32.9478 14.2247 32.8739 14.3187 32.8216C14.4127 32.7693 14.5178 32.7402 14.6253 32.7365C14.7328 32.7328 14.8396 32.7547 14.9369 32.8005C15.0343 32.8462 15.1194 32.9144 15.1852 32.9995C15.251 33.0846 15.2956 33.1841 15.3154 33.2898C15.3352 33.3955 15.3295 33.5044 15.2989 33.6075C15.2683 33.7107 15.2137 33.805 15.1394 33.8828C13.3269 37.495 11.2348 40.9599 8.88212 44.2459C8.56962 44.6922 8.24287 45.1224 7.91274 45.5585C11.9659 45.8383 16.0379 46.411 19.6687 48.3584C19.7634 48.4132 19.8433 48.4901 19.9018 48.5826C19.9603 48.675 19.9956 48.7802 20.0047 48.8892C20.4054 51.126 6.9355 48.0652 5.38394 47.8353C5.14994 47.8241 4.92455 47.7436 4.73648 47.6039C4.54841 47.4642 4.40621 47.2717 4.32788 47.0509C4.24955 46.8301 4.23864 46.591 4.29662 46.364C4.3546 46.137 4.47883 45.9325 4.65345 45.7763Z" fill="#177AC5"/>
</svg>
