<svg width="69" height="101" viewBox="0 0 69 101" fill="none" xmlns="http://www.w3.org/2000/svg">
<path d="M37.7807 5.66351C28.869 5.41954 21.2656 11.9351 17.003 19.2711C13.7279 24.6614 11.7086 31.9612 14.1006 37.7001C13.6531 38.2692 13.2581 38.8777 12.9205 39.5182C7.47418 49.6103 12.6843 66.3547 24.2017 69.6898C26.0202 82.9818 39.1289 93.4898 52.4548 92.3374C52.5991 92.3286 52.7349 92.2656 52.8346 92.1609C52.9344 92.0562 52.9908 91.9176 52.9925 91.773C52.9938 91.6971 52.9796 91.6217 52.9508 91.5514C52.922 91.4812 52.8792 91.4175 52.825 91.3644C52.7708 91.3112 52.7063 91.2696 52.6355 91.2422C52.5647 91.2148 52.489 91.2021 52.4131 91.2048C44.162 91.2662 36.2211 86.9315 31.331 80.3807C29.1189 77.3361 27.6021 73.8431 26.8875 70.1482C28.9203 70.2987 30.9602 69.9733 32.8453 69.1979C34.7304 68.4225 36.4088 67.2184 37.7475 65.6812C39.2429 63.7028 40.7324 60.6994 39.1735 58.3268C36.6549 54.6612 31.1167 54.9739 28.0101 57.5218C25.094 59.7776 24.0341 63.5616 24.0379 67.15C18.0705 65.1664 14.082 58.2776 13.0673 52.1765C12.356 48.1851 12.6038 43.916 14.4844 40.3669C14.6422 40.0559 14.8275 39.7444 15.0162 39.4458C15.9156 40.8799 17.0955 42.1175 18.4851 43.0842C22.2734 45.6517 28.0744 44.931 30.7283 41.0024C32.1081 39.055 32.2998 35.9653 30.3139 34.3134C25.6021 30.5878 18.9171 32.5857 15.0039 36.7002C11.6926 27.9419 19.073 15.5541 26.2126 10.5476C29.546 8.05819 33.6093 6.7417 37.7692 6.80338C37.9203 6.8049 38.0659 6.74633 38.1738 6.64052C38.2818 6.53472 38.3433 6.39036 38.3448 6.2392C38.3464 6.08804 38.2878 5.94247 38.182 5.83451C38.0762 5.72655 37.9318 5.66503 37.7807 5.66351ZM28.2827 61.059C29.9066 58.557 33.7074 57.263 36.2043 58.9708C36.4888 59.1355 36.7311 59.364 36.9122 59.6383C37.0933 59.9126 37.2082 60.2252 37.2479 60.5514C37.0967 61.8508 36.5742 63.0791 35.7432 64.0894C34.5974 65.3429 33.1806 66.3182 31.6006 66.9409C30.0207 67.5636 28.3194 67.8174 26.6265 67.6828C26.5304 65.3616 27.1055 63.0618 28.2827 61.059ZM26.8015 34.1384C30.0175 34.8269 31.4266 37.4118 29.5846 40.2823C27.4516 43.6097 22.3233 44.2949 19.1205 42.0872C17.7595 41.0957 16.6205 39.831 15.7762 38.3741C18.3886 35.1387 22.7081 33.1063 26.8015 34.1384Z" fill="#177AC5"/>
<path d="M46.9498 6.81683C44.5639 5.18942 41.872 4.27098 39.5017 2.70142C39.453 2.6561 39.3936 2.6239 39.329 2.60784C39.2645 2.59178 39.1969 2.5924 39.1326 2.60961C39.0684 2.62683 39.0095 2.66009 38.9616 2.70628C38.9138 2.75247 38.8784 2.81006 38.8589 2.87366C38.7915 3.1883 38.7987 3.51434 38.8798 3.82573C38.8798 3.82573 39.1624 4.70076 39.1809 4.74403C39.3688 5.25605 39.478 5.7936 39.5048 6.33834C39.4632 7.41737 38.6652 8.3477 38.0292 9.21397C38.0002 9.25388 37.9796 9.29926 37.9685 9.34736C37.7189 9.57272 37.7449 9.77244 38.1767 9.91853C41.0636 9.6613 43.9137 9.08937 46.6763 8.21293C46.8315 8.19154 46.9762 8.12217 47.0901 8.01453C47.204 7.90689 47.2815 7.76635 47.3116 7.61256C47.3417 7.45876 47.323 7.29941 47.2582 7.15674C47.1933 7.01407 47.0855 6.89523 46.9498 6.81683ZM38.9879 3.25247C38.9207 3.20505 38.8744 3.13355 38.8586 3.05286L38.9879 3.25247ZM39.2032 8.65828C39.7231 7.98562 40.049 7.18351 40.1457 6.33885C40.1005 5.44599 39.9225 4.56486 39.6174 3.72454C41.2564 4.90444 43.0391 5.90114 44.6888 7.04374C42.8325 7.48567 41.0042 8.03768 39.2135 8.69685L39.2032 8.65828Z" fill="#177AC5"/>
</svg>
