<svg width="15" height="15" viewBox="0 0 15 15" fill="none" xmlns="http://www.w3.org/2000/svg">
<path d="M12.2456 12.6454C12.3491 12.7499 12.4072 12.8913 12.4072 13.0387C12.4072 13.1861 12.3491 13.3276 12.2456 13.432L11.6337 14.0467C10.6628 15.0238 9.17412 15.2809 7.94033 14.6731C3.64195 12.5549 1.4111 9.1831 0.326855 6.9835C-0.282605 5.74736 -0.0201401 4.25836 0.950736 3.2822L1.54977 2.68018C1.6011 2.6285 1.66207 2.5875 1.72919 2.55952C1.79631 2.53155 1.86825 2.51715 1.94091 2.51715C2.01358 2.51715 2.08552 2.53155 2.15264 2.55952C2.21976 2.5875 2.28073 2.6285 2.33206 2.68018L4.69469 5.05704C4.79845 5.16133 4.85675 5.30277 4.85675 5.45025C4.85675 5.59773 4.79845 5.73917 4.69469 5.84346L3.69053 6.85284C3.40211 7.1427 3.33555 7.60202 3.55497 7.94852C4.44117 9.34208 5.61847 10.5252 7.00518 11.4157C7.34973 11.6369 7.80633 11.57 8.09519 11.2797L9.09957 10.2703C9.15091 10.2186 9.21187 10.1776 9.27899 10.1496C9.34611 10.1217 9.41806 10.1073 9.49072 10.1073C9.56338 10.1073 9.63533 10.1217 9.70245 10.1496C9.76956 10.1776 9.83053 10.2186 9.88187 10.2703L12.2456 12.6454Z" fill="#1579C5"/>
<path d="M14.7042 6.85477C14.6654 6.85477 14.6269 6.84707 14.591 6.83212C14.5551 6.81717 14.5225 6.79526 14.495 6.76764C14.4676 6.74001 14.4458 6.70722 14.4309 6.67114C14.4161 6.63505 14.4085 6.59638 14.4085 6.55733C14.4085 3.26963 11.7461 0.594661 8.47519 0.594661C8.39675 0.594661 8.32153 0.563347 8.26606 0.507608C8.2106 0.451869 8.17944 0.376269 8.17944 0.297442C8.17941 0.258392 8.18704 0.219719 8.20189 0.183633C8.21674 0.147547 8.23852 0.114755 8.26598 0.0871324C8.29345 0.0595094 8.32606 0.0375967 8.36196 0.0226461C8.39785 0.00769548 8.43633 -1.09883e-08 8.47519 0C12.0729 0 15 2.94164 15 6.55733C15 6.59638 14.9924 6.63505 14.9775 6.67114C14.9627 6.70722 14.9409 6.74001 14.9134 6.76764C14.886 6.79526 14.8534 6.81717 14.8175 6.83212C14.7816 6.84707 14.7431 6.85477 14.7042 6.85477Z" fill="#1579C5"/>
<path d="M12.9247 6.85476C12.8858 6.85479 12.8473 6.84712 12.8114 6.8322C12.7755 6.81728 12.7429 6.79539 12.7154 6.76779C12.6879 6.74018 12.6661 6.70741 12.6512 6.67133C12.6364 6.63526 12.6287 6.59659 12.6287 6.55754C12.6287 4.25582 10.765 2.3831 8.47519 2.3831C8.39675 2.3831 8.32153 2.35178 8.26606 2.29604C8.2106 2.2403 8.17944 2.16471 8.17944 2.08588C8.17968 2.00721 8.21094 1.93184 8.26638 1.87629C8.32181 1.82074 8.3969 1.78955 8.47519 1.78955C11.0918 1.78955 13.2204 3.92873 13.2204 6.55843C13.2202 6.63711 13.1889 6.71248 13.1335 6.76802C13.078 6.82357 13.0029 6.85476 12.9247 6.85476Z" fill="#1579C5"/>
<path d="M11.1458 6.85479C11.1069 6.85479 11.0685 6.84709 11.0326 6.83214C10.9967 6.81719 10.9641 6.79528 10.9366 6.76765C10.9091 6.74003 10.8873 6.70724 10.8725 6.67115C10.8576 6.63507 10.85 6.5964 10.85 6.55734C10.8494 5.9248 10.5991 5.31834 10.154 4.87106C9.70896 4.42378 9.10552 4.17221 8.47611 4.17157C8.39767 4.17157 8.32244 4.14025 8.26698 4.08451C8.21152 4.02877 8.18036 3.95317 8.18036 3.87435C8.18033 3.8353 8.18796 3.79662 8.20281 3.76054C8.21766 3.72445 8.23944 3.69166 8.2669 3.66404C8.29437 3.63641 8.32698 3.6145 8.36288 3.59955C8.39877 3.5846 8.43725 3.5769 8.47611 3.5769C10.1112 3.5769 11.4413 4.91472 11.4413 6.5569C11.4414 6.59597 11.4338 6.63467 11.419 6.67079C11.4042 6.70692 11.3825 6.73975 11.355 6.76742C11.3276 6.79509 11.295 6.81704 11.2591 6.83203C11.2232 6.84703 11.1847 6.85476 11.1458 6.85479Z" fill="#1579C5"/>
<path d="M9.36508 6.85477C9.28665 6.85477 9.21142 6.82345 9.15596 6.76771C9.1005 6.71198 9.06934 6.63638 9.06934 6.55755C9.06916 6.39924 9.00651 6.24746 8.89512 6.13552C8.78373 6.02358 8.63271 5.96061 8.47519 5.96044C8.39675 5.96044 8.32153 5.92912 8.26606 5.87338C8.2106 5.81764 8.17944 5.74204 8.17944 5.66322C8.17944 5.62418 8.18709 5.58554 8.20195 5.54948C8.21682 5.51342 8.2386 5.48065 8.26606 5.45305C8.32153 5.39731 8.39675 5.366 8.47519 5.366C8.78953 5.36635 9.0909 5.492 9.31317 5.71539C9.53545 5.93877 9.66047 6.24164 9.66083 6.55755C9.66083 6.59658 9.65318 6.63523 9.63831 6.67129C9.62345 6.70735 9.60167 6.74012 9.57421 6.76771C9.54674 6.79531 9.51414 6.81721 9.47826 6.83214C9.44238 6.84708 9.40392 6.85477 9.36508 6.85477Z" fill="#1579C5"/>
<path d="M8.37335 7.13526C8.37335 7.22936 8.34558 7.32134 8.29355 7.39957C8.24153 7.47781 8.16758 7.53878 8.08107 7.57477C7.99456 7.61076 7.89938 7.62016 7.80755 7.60178C7.71573 7.5834 7.63139 7.53806 7.5652 7.47149C7.49902 7.40493 7.45397 7.32014 7.43575 7.22784C7.41752 7.13555 7.42695 7.03989 7.46283 6.95298C7.49871 6.86606 7.55943 6.7918 7.63732 6.73957C7.7152 6.68734 7.80675 6.65951 7.90038 6.65958C7.96252 6.65958 8.02405 6.67188 8.08145 6.69579C8.13886 6.7197 8.19102 6.75475 8.23494 6.79892C8.27886 6.8431 8.3137 6.89554 8.33744 6.95325C8.36119 7.01096 8.37339 7.07281 8.37335 7.13526Z" fill="#1579C5"/>
</svg>
